<svg xmlns="http://www.w3.org/2000/svg" viewBox="0 0 1600 900"><defs><linearGradient id="b" x2="1" y2="1"><stop stop-color="#091218"/><stop offset="1" stop-color="#1c2d33"/></linearGradient><radialGradient id="g"><stop stop-color="#d7ff3f" stop-opacity=".2"/><stop offset="1" stop-color="#d7ff3f" stop-opacity="0"/></radialGradient></defs><path fill="url(#b)" d="M0 0h1600v900H0z"/><circle cx="1220" cy="320" r="650" fill="url(#g)"/><g stroke="#b5c6c5" stroke-opacity=".13"><path d="M0 150h1600M0 300h1600M0 450h1600M0 600h1600M0 750h1600"/><path d="M160 0v900M320 0v900M480 0v900M640 0v900M800 0v900M960 0v900M1120 0v900M1280 0v900M1440 0v900"/></g><g transform="translate(260 205)"><rect width="1080" height="490" rx="28" fill="#111c22" stroke="#8ea4a6" stroke-opacity=".45"/><rect x="28" y="28" width="1024" height="60" rx="14" fill="#223239"/><circle cx="58" cy="58" r="7" fill="#d7ff3f"/><circle cx="82" cy="58" r="7" fill="#82969b"/><circle cx="106" cy="58" r="7" fill="#82969b"/><g fill="#1b2b31" stroke="#8ea4a6" stroke-opacity=".25"><rect x="36" y="120" width="230" height="132" rx="16"/><rect x="292" y="120" width="230" height="132" rx="16"/><rect x="548" y="120" width="230" height="132" rx="16"/><rect x="804" y="120" width="230" height="132" rx="16"/><rect x="36" y="278" width="640" height="178" rx="16"/><rect x="702" y="278" width="332" height="178" rx="16"/></g><g fill="#d7ff3f"><rect x="58" y="148" width="70" height="8" rx="4"/><rect x="314" y="148" width="70" height="8" rx="4"/><rect x="570" y="148" width="70" height="8" rx="4"/><rect x="826" y="148" width="70" height="8" rx="4"/></g><g fill="#dce6e5" fill-opacity=".75"><rect x="58" y="178" width="140" height="18" rx="5"/><rect x="314" y="178" width="115" height="18" rx="5"/><rect x="570" y="178" width="135" height="18" rx="5"/><rect x="826" y="178" width="100" height="18" rx="5"/></g><path d="M72 420 150 385 230 397 310 344 390 360 470 316 550 330 630 300V430H72Z" fill="#d7ff3f" fill-opacity=".08"/><path d="M72 420 150 385 230 397 310 344 390 360 470 316 550 330 630 300" stroke="#d7ff3f" stroke-width="5" stroke-linecap="round" stroke-linejoin="round"/><g fill="#7d9297"><rect x="734" y="310" width="245" height="10" rx="5"/><rect x="734" y="338" width="200" height="10" rx="5"/><rect x="734" y="366" width="225" height="10" rx="5"/></g><rect x="734" y="400" width="245" height="24" rx="12" fill="#d7ff3f" fill-opacity=".9"/></g></svg>